<svg xmlns="http://www.w3.org/2000/svg" width="138" height="28" viewBox="0 0 138 28">
  <g id="Group_220" data-name="Group 220" transform="translate(-140 -13.852)">
    <path id="Shape" d="M0,27.48H27.634V0H0V27.48" transform="translate(140 14.093)" fill="#ff3454"/>
    <g id="Group" transform="translate(143.974 13.852)">
      <path id="Shape-2" data-name="Shape" d="M4.684,17.215a4.717,4.717,0,0,1,0-9.434,4.6,4.6,0,0,1,1.648.305V3.57h2.6V9.533a5.823,5.823,0,0,0,.2,1.517c.013.038.023.075.033.114l.008.03.009.035a5.728,5.728,0,0,0,3.525,3.7v.006l-1.3,2.277a8.283,8.283,0,0,1-2.873-2.038A4.686,4.686,0,0,1,4.684,17.215Zm0-6.813a2.1,2.1,0,1,0,2.079,2.1A2.091,2.091,0,0,0,4.684,10.4Zm10.38,3.226a4.7,4.7,0,0,1-4.682-4.717V0h2.6V4.689a4.611,4.611,0,0,1,2.081-.5,4.717,4.717,0,0,1,0,9.435Zm0-6.816a2.1,2.1,0,1,0,2.08,2.1A2.092,2.092,0,0,0,15.063,6.812Z" transform="translate(0 4.697)" fill="#fff"/>
      <path id="Shape-3" data-name="Shape" d="M6.25,28a6.235,6.235,0,0,1-4.539-1.758A6.1,6.1,0,0,1,0,21.886v-.035A6.125,6.125,0,0,1,1.745,17.53a6.193,6.193,0,0,1,4.469-1.825,6.584,6.584,0,0,1,4.633,1.615L9.5,18.9a4.768,4.768,0,0,0-3.373-1.274,3.745,3.745,0,0,0-2.788,1.245,4.348,4.348,0,0,0-1.121,2.949v.034a3.994,3.994,0,0,0,4.1,4.248,4.993,4.993,0,0,0,2.909-.9V22.973H6.147V21.156h5.129V26.15A7.721,7.721,0,0,1,6.25,28Zm24.817,0a6.327,6.327,0,0,1-4.531-1.8,6.045,6.045,0,0,1-1.754-4.312V21.85a6.071,6.071,0,0,1,1.772-4.327,6.592,6.592,0,0,1,9.076-.016,6.045,6.045,0,0,1,1.754,4.309v.034a6.079,6.079,0,0,1-1.771,4.329A6.353,6.353,0,0,1,31.067,28Zm0-10.376A4.04,4.04,0,0,0,27,21.817v.034a4.314,4.314,0,0,0,1.151,2.98,4.076,4.076,0,0,0,7.01-2.946V21.85a4.309,4.309,0,0,0-1.152-2.978A4,4,0,0,0,31.067,17.623ZM44.86,27.974c-3.261,0-5.131-1.906-5.131-5.23V15.9h2.118v6.76c0,2.162,1.111,3.4,3.047,3.4a2.91,2.91,0,0,0,2.218-.835,3.491,3.491,0,0,0,.811-2.477V15.9h2.119v6.737a5.391,5.391,0,0,1-1.41,4A5.229,5.229,0,0,1,44.86,27.974ZM23.568,27.8h-2.49l-2.962-4.147H15.464V27.8h-2.12V15.908h5.371A4.867,4.867,0,0,1,22.19,17.1a3.555,3.555,0,0,1,1,2.564V19.7a3.571,3.571,0,0,1-2.876,3.6l3.254,4.5ZM15.46,17.811V21.8h3.1c1.505,0,2.478-.78,2.478-1.988V19.78c0-1.251-.91-1.969-2.5-1.969Zm36.927,9.978V15.9h4.751c2.783,0,4.581,1.56,4.581,3.974v.033A3.7,3.7,0,0,1,60.3,22.937a5.572,5.572,0,0,1-3.406,1.03l-2.392,0v3.823H52.387ZM54.5,17.8v4.281h2.463c1.556,0,2.6-.853,2.6-2.123v-.036c0-1.349-.948-2.123-2.6-2.123Zm30.849-5.507a6.237,6.237,0,0,1-4.538-1.757A6.1,6.1,0,0,1,79.1,6.183V6.151a6.135,6.135,0,0,1,1.745-4.325A6.2,6.2,0,0,1,85.317,0a6.657,6.657,0,0,1,4.633,1.612L88.607,3.193a4.839,4.839,0,0,0-3.374-1.272,3.744,3.744,0,0,0-2.787,1.243,4.348,4.348,0,0,0-1.121,2.951v.036a3.989,3.989,0,0,0,4.1,4.239,5.014,5.014,0,0,0,2.909-.9V7.267H85.249V5.449H90.38v4.993a7.736,7.736,0,0,1-5.028,1.849h0Zm-54.265-.1H29.227L24.217.216h2.342l3.633,9.138L33.807.216H36.1l-5.01,11.973Zm-8.565-.084H13.5V.216h8.934v1.87H15.618V5.178h6.043V7.044H15.618v3.2h6.9V12.1Zm-17.495,0H.534V.216H5.028c3.711,0,6.4,2.487,6.4,5.912V6.16A5.746,5.746,0,0,1,9.65,10.386,6.661,6.661,0,0,1,5.028,12.1l0,0ZM2.652,2.121v8.084H5.028A4.245,4.245,0,0,0,8.069,9.072,3.961,3.961,0,0,0,9.212,6.2V6.16A3.935,3.935,0,0,0,5.028,2.121Zm40.8,9.978H37.874V.21H43.28a4.395,4.395,0,0,1,3.152,1.053,2.651,2.651,0,0,1,.809,1.973v.034a2.8,2.8,0,0,1-1.722,2.648c1.633.55,2.393,1.469,2.393,2.89v.031C47.911,10.88,46.244,12.1,43.451,12.1ZM39.957,6.99v3.263h3.512c1.478,0,2.325-.594,2.325-1.63V8.589c0-1.046-.857-1.6-2.479-1.6Zm0-4.924V5.226H42.85c1.445,0,2.273-.587,2.273-1.612V3.578c0-.947-.792-1.512-2.119-1.512ZM52.085,12.1H49.967V.206h5.372A4.87,4.87,0,0,1,58.814,1.4a3.558,3.558,0,0,1,1,2.564v.034a3.567,3.567,0,0,1-2.876,3.6l3.255,4.5H57.7l-2.96-4.142H52.085Zm0-9.986V6.1h3.1c1.506,0,2.479-.781,2.479-1.989V4.08c0-1.252-.91-1.97-2.5-1.97Zm12.291,9.982H62.256V.2h2.118V12.091Zm37.094,0H92.444V.2h8.936v1.87H94.562V5.163H100.6V7.03H94.562v3.2h6.9V12.09Zm-30.54,0H66.433V.2h4.493c3.711,0,6.4,2.487,6.4,5.912v.032a5.746,5.746,0,0,1-1.782,4.226,6.658,6.658,0,0,1-4.622,1.715h0ZM68.551,2.1v8.084h2.376a4.242,4.242,0,0,0,3.041-1.133A3.958,3.958,0,0,0,75.11,6.179V6.143A3.936,3.936,0,0,0,70.926,2.1Zm35.856-.239a.944.944,0,0,1-.971-.937A.952.952,0,0,1,104.407,0a.936.936,0,0,1,.963.929A.94.94,0,0,1,104.407,1.865Zm0-1.679a.728.728,0,0,0-.73.743.721.721,0,0,0,.734.74.711.711,0,0,0,.718-.736A.719.719,0,0,0,104.407.186Zm-.15,1.229h-.219V.485A2.78,2.78,0,0,1,104.4.458a.5.5,0,0,1,.328.068.252.252,0,0,1,.091.2.238.238,0,0,1-.2.217V.957a.264.264,0,0,1,.172.225.728.728,0,0,0,.069.23l-.235,0a.466.466,0,0,1-.056-.158l0-.015-.014-.053c-.018-.1-.077-.148-.2-.148h-.1v.375Zm.126-.8a.468.468,0,0,0-.12.011V.887h.1c.138,0,.218-.049.218-.135S104.512.61,104.383.61Z" transform="translate(28.657)" fill="#1c2e36"/>
    </g>
  </g>
</svg>
