<svg xmlns="http://www.w3.org/2000/svg" xmlns:xlink="http://www.w3.org/1999/xlink" width="138" height="215" viewBox="0 0 138 215"><svg width="7" height="11" viewBox="0 0 7 11" id="arrow-blue" y="0"><path d="M0 1.293L4.327 5.5 0 9.708 1.332 11 7 5.5 1.332 0z" fill="#404ced"></path></svg><svg width="14" height="9" viewBox="0 0 14 9" id="arrow-down" y="11"><path d="M1.645 0L7 5.563 12.355 0 14 1.713 7 9 0 1.713z" fill="#1c2e36"></path></svg><svg width="7" height="11" viewBox="0 0 7 11" id="arrow-gray" y="20"><path d="M0 1.293L4.327 5.5 0 9.708 1.332 11 7 5.5 1.332 0z" fill="#9ba5a7"></path></svg><svg width="7" height="11" viewBox="0 0 7 11" id="arrow-white" y="31"><path d="M0 1.293L4.327 5.5 0 9.708 1.332 11 7 5.5 1.332 0z" fill="#fff"></path></svg><svg width="16" height="20" viewBox="0 0 16 20" id="bell" y="42"><g data-name="Group 98" fill="#7b8c90"><path data-name="Path 1" d="M5.492 17.475v.017a2.509 2.509 0 1 0 5.017 0v-.017z"></path><path data-name="Path 2" d="M15.807 14.459l-2.2-3.094V7.5A5.433 5.433 0 0 0 9.1 2.237V1.052a1.1 1.1 0 0 0-2.2 0v1.189A5.434 5.434 0 0 0 2.394 7.5v3.861l-2.2 3.094a1.026 1.026 0 0 0-.064 1.1 1.119 1.119 0 0 0 .983.567h13.776a1.119 1.119 0 0 0 .983-.567 1.026 1.026 0 0 0-.065-1.096z"></path></g></svg><svg width="16" height="20" viewBox="0 0 16 20" id="bell-warn" y="62"><g transform="translate(-59 -1391.965)"><g data-name="Group 98" transform="translate(59 1391.965)" fill="#7b8c90"><path data-name="Path 1" d="M5.492 17.475v.017a2.509 2.509 0 1 0 5.017 0v-.017z"></path><path data-name="Path 2" d="M15.807 14.459l-2.2-3.094V7.5A5.433 5.433 0 0 0 9.1 2.237V1.052a1.1 1.1 0 0 0-2.2 0v1.189A5.434 5.434 0 0 0 2.394 7.5v3.861l-2.2 3.094a1.026 1.026 0 0 0-.064 1.1 1.119 1.119 0 0 0 .983.567h13.776a1.119 1.119 0 0 0 .983-.567 1.026 1.026 0 0 0-.065-1.096z"></path></g><g data-name="Ellipse 1" transform="translate(67 1396)" fill="#404ced" stroke="#fff"><circle cx="4" cy="4" r="4" stroke="none"></circle><circle cx="4" cy="4" r="3.5" fill="none"></circle></g></g></svg><svg width="14" height="15" viewBox="0 0 14 15" id="calendar" y="82"><path d="M12.444 15H1.555A1.53 1.53 0 0 1 0 13.5L.008 3a1.526 1.526 0 0 1 1.547-1.5h.778V0h1.556v1.5h6.223V0h1.555v1.5h.778A1.53 1.53 0 0 1 14 3v10.5a1.531 1.531 0 0 1-1.556 1.5zM1.555 5.25v8.25h10.889V5.25zm9.333 3H9.333v-1.5h1.556v1.5zm-3.111 0H6.223v-1.5h1.555v1.5zm-3.111 0H3.111v-1.5h1.555v1.5z" fill="#1c2e36"></path></svg><svg width="10" height="10" viewBox="0 0 10 10" id="checkmark-gray" y="97"><g transform="translate(-304 -601)"><path fill="none" d="M304 601h10v10h-10z"></path><path d="M306.43 604.764l-1.43 1.7 3.782 3.541 5.218-6.548-1.638-1.452-3.8 4.768z" fill="#9ba5a7"></path></g></svg><svg width="10" height="10" viewBox="0 0 10 10" id="checkmark-white" y="107"><g transform="translate(-304 -582)"><path fill="none" d="M304 582h10v10h-10z"></path><path d="M306.43 585.764l-1.43 1.7 3.782 3.541 5.218-6.548-1.638-1.452-3.8 4.768z" fill="#fff"></path></g></svg><svg width="14" height="14" viewBox="0 0 14 14" id="clock" y="117"><g data-name="Group 126"><path data-name="Path 3" d="M7 0a7 7 0 1 0 7 7 7.008 7.008 0 0 0-7-7zm0 12.511A5.511 5.511 0 1 1 12.511 7 5.517 5.517 0 0 1 7 12.511z"></path><path data-name="Path 4" d="M10.649 6.784H7.503V3.001a.577.577 0 0 0-1.153 0V7.36a.576.576 0 0 0 .576.576h3.722a.577.577 0 0 0 0-1.153z"></path></g></svg><svg width="138" height="28" viewBox="0 0 138 28" id="devbridge-logo" y="131"><g data-name="Group 220" transform="translate(-140 -13.852)"><path d="M140 41.573h27.634v-27.48H140v27.48" fill="#ff3454"></path><g transform="translate(143.974 13.852)"><path data-name="Shape" d="M4.684 21.912a4.717 4.717 0 0 1 0-9.434 4.6 4.6 0 0 1 1.648.305V8.267h2.6v5.963a5.823 5.823 0 0 0 .2 1.517c.013.038.023.075.033.114l.008.03.009.035a5.728 5.728 0 0 0 3.525 3.7v.006l-1.3 2.277a8.283 8.283 0 0 1-2.873-2.038 4.686 4.686 0 0 1-3.85 2.041zm0-6.813a2.1 2.1 0 1 0 2.079 2.1 2.091 2.091 0 0 0-2.079-2.102zm10.38 3.226a4.7 4.7 0 0 1-4.682-4.717V4.697h2.6v4.689a4.611 4.611 0 0 1 2.081-.5 4.718 4.718 0 0 1 0 9.435zm0-6.816a2.1 2.1 0 1 0 2.08 2.1 2.092 2.092 0 0 0-2.081-2.1z" fill="#fff"></path><path data-name="Shape" d="M34.907 28a6.235 6.235 0 0 1-4.539-1.758 6.1 6.1 0 0 1-1.711-4.356v-.035a6.125 6.125 0 0 1 1.745-4.321 6.193 6.193 0 0 1 4.469-1.825 6.584 6.584 0 0 1 4.633 1.615l-1.347 1.58a4.768 4.768 0 0 0-3.373-1.274 3.745 3.745 0 0 0-2.788 1.245 4.348 4.348 0 0 0-1.121 2.949v.034a3.994 3.994 0 0 0 4.1 4.248 4.993 4.993 0 0 0 2.909-.9v-2.229h-3.08v-1.817h5.129v4.994A7.721 7.721 0 0 1 34.907 28zm24.817 0a6.327 6.327 0 0 1-4.531-1.8 6.045 6.045 0 0 1-1.754-4.312v-.038a6.071 6.071 0 0 1 1.772-4.327 6.592 6.592 0 0 1 9.076-.016 6.045 6.045 0 0 1 1.754 4.309v.034a6.079 6.079 0 0 1-1.771 4.329A6.353 6.353 0 0 1 59.724 28zm0-10.376a4.04 4.04 0 0 0-4.067 4.193v.034a4.314 4.314 0 0 0 1.151 2.98 4.076 4.076 0 0 0 7.01-2.946v-.035a4.309 4.309 0 0 0-1.152-2.978 4 4 0 0 0-2.942-1.249zm13.793 10.35c-3.261 0-5.131-1.906-5.131-5.23V15.9h2.118v6.76c0 2.162 1.111 3.4 3.047 3.4a2.91 2.91 0 0 0 2.218-.835 3.491 3.491 0 0 0 .811-2.477V15.9h2.119v6.737a5.391 5.391 0 0 1-1.41 4 5.229 5.229 0 0 1-3.772 1.337zM52.225 27.8h-2.49l-2.962-4.147h-2.652V27.8h-2.12V15.908h5.371a4.867 4.867 0 0 1 3.475 1.192 3.555 3.555 0 0 1 1 2.564v.036a3.571 3.571 0 0 1-2.876 3.6l3.254 4.5zm-8.108-9.989V21.8h3.1c1.505 0 2.478-.78 2.478-1.988v-.032c0-1.251-.91-1.969-2.5-1.969zm36.927 9.978V15.9h4.751c2.783 0 4.581 1.56 4.581 3.974v.033a3.7 3.7 0 0 1-1.419 3.03 5.572 5.572 0 0 1-3.406 1.03h-2.392v3.823h-2.115zm2.113-9.989v4.281h2.463c1.556 0 2.6-.853 2.6-2.123v-.036c0-1.349-.948-2.123-2.6-2.123zm30.849-5.507a6.237 6.237 0 0 1-4.538-1.757 6.1 6.1 0 0 1-1.711-4.353v-.032a6.135 6.135 0 0 1 1.745-4.325A6.2 6.2 0 0 1 113.974 0a6.657 6.657 0 0 1 4.633 1.612l-1.343 1.581a4.839 4.839 0 0 0-3.374-1.272 3.744 3.744 0 0 0-2.787 1.243 4.348 4.348 0 0 0-1.121 2.951v.036a3.989 3.989 0 0 0 4.1 4.239 5.014 5.014 0 0 0 2.909-.9V7.267h-3.085V5.449h5.131v4.993a7.736 7.736 0 0 1-5.028 1.849zm-54.265-.1h-1.857L52.874.216h2.342l3.633 9.138L62.464.216h2.293l-5.01 11.973zm-8.565-.084h-9.019V.216h8.934v1.87h-6.816v3.092h6.043v1.866h-6.043v3.2h6.9V12.1zm-17.495 0h-4.49V.216h4.494c3.711 0 6.4 2.487 6.4 5.912v.032a5.746 5.746 0 0 1-1.778 4.226 6.661 6.661 0 0 1-4.622 1.714zm-2.372-9.988v8.084h2.376a4.245 4.245 0 0 0 3.041-1.133A3.961 3.961 0 0 0 37.869 6.2v-.04a3.935 3.935 0 0 0-4.184-4.039zm40.8 9.978h-5.578V.21h5.406a4.395 4.395 0 0 1 3.152 1.053 2.651 2.651 0 0 1 .809 1.973v.034a2.8 2.8 0 0 1-1.722 2.648c1.633.55 2.393 1.469 2.393 2.89v.031c-.001 2.041-1.668 3.261-4.461 3.261zM68.614 6.99v3.263h3.512c1.478 0 2.325-.594 2.325-1.63v-.034c0-1.046-.857-1.6-2.479-1.6zm0-4.924v3.16h2.893c1.445 0 2.273-.587 2.273-1.612v-.036c0-.947-.792-1.512-2.119-1.512zM80.742 12.1h-2.118V.206h5.372A4.87 4.87 0 0 1 87.471 1.4a3.558 3.558 0 0 1 1 2.564v.034a3.567 3.567 0 0 1-2.876 3.6l3.255 4.5h-2.493l-2.96-4.142h-2.655zm0-9.986V6.1h3.1c1.506 0 2.479-.781 2.479-1.989V4.08c0-1.252-.91-1.97-2.5-1.97zm12.291 9.982h-2.12V.2h2.118v11.891zm37.094 0h-9.026V.2h8.936v1.87h-6.818v3.093h6.038V7.03h-6.038v3.2h6.9v1.86zm-30.54 0H95.09V.2h4.493c3.711 0 6.4 2.487 6.4 5.912v.032a5.746 5.746 0 0 1-1.782 4.226 6.658 6.658 0 0 1-4.622 1.715zM97.208 2.1v8.084h2.376a4.242 4.242 0 0 0 3.041-1.133 3.958 3.958 0 0 0 1.142-2.872v-.036A3.936 3.936 0 0 0 99.583 2.1zm35.856-.239a.944.944 0 0 1-.971-.937.952.952 0 0 1 .971-.924.936.936 0 0 1 .963.929.94.94 0 0 1-.963.936zm0-1.679a.728.728 0 0 0-.73.743.721.721 0 0 0 .734.74.711.711 0 0 0 .718-.736.719.719 0 0 0-.722-.743zm-.15 1.229h-.219V.485a2.78 2.78 0 0 1 .362-.027.5.5 0 0 1 .328.068.252.252 0 0 1 .091.2.238.238 0 0 1-.2.217v.014a.264.264 0 0 1 .172.225.728.728 0 0 0 .069.23h-.235a.466.466 0 0 1-.056-.158v-.015l-.014-.053c-.018-.1-.077-.148-.2-.148h-.1v.375zm.126-.8a.468.468 0 0 0-.12.011v.265h.1c.138 0 .218-.049.218-.135s-.069-.142-.198-.142z" fill="#1c2e36"></path></g></g></svg><svg width="14" height="14" viewBox="0 0 14 14" id="info" y="159"><path d="M7 14A6.991 6.991 0 0 1 2.057 2.057a6.991 6.991 0 1 1 9.887 9.887A6.947 6.947 0 0 1 7 14zM7 1.4A5.6 5.6 0 1 0 12.6 7 5.606 5.606 0 0 0 7 1.4zm.7 9.1H6.3V6.3h1.4v4.2zm0-5.6H6.3V3.5h1.4v1.4z" fill="#404ced"></path></svg><svg width="12" height="12" viewBox="0 0 12 12" id="search" y="173"><path d="M10.977 12l-3.43-3.424v-.542l-.185-.193a4.467 4.467 0 1 1 .481-.481l.193.185h.542L12 10.977 10.978 12zM4.46 1.373A3.087 3.087 0 1 0 7.547 4.46 3.091 3.091 0 0 0 4.46 1.373z" fill="#1c2e36"></path></svg><svg width="11" height="10" viewBox="0 0 11 10" id="skip-blue" y="185"><path d="M11 10H9.228V0H11v10zm-9.75 0L0 8.825 4.069 5 0 1.175 1.25 0l5.318 5-5.317 5z" fill="#404ced"></path></svg><svg width="11" height="10" viewBox="0 0 11 10" id="skip-gray" y="195"><path d="M11 10H9.228V0H11v10zm-9.75 0L0 8.825 4.069 5 0 1.175 1.25 0l5.318 5-5.317 5z" fill="#9ba5a7"></path></svg><svg width="11" height="10" viewBox="0 0 11 10" id="skip-white" y="205"><path d="M11 10H9.228V0H11v10zm-9.75 0L0 8.825 4.069 5 0 1.175 1.25 0l5.318 5-5.317 5z" fill="#fff"></path></svg></svg>